<?xml version="1.0" encoding="UTF-8"?>
<!DOCTYPE svg PUBLIC "-//W3C//DTD SVG 1.1//EN"
    "http://www.w3.org/Graphics/SVG/1.1/DTD/svg11.dtd">
<svg xmlns="http://www.w3.org/2000/svg" xmlns:xlink="http://www.w3.org/1999/xlink" version="1.1" width="480.0000000000001" height="480.0" font-size="1" viewBox="0 0 480 480"><g><g stroke="rgb(0,0,0)" stroke-opacity="1.0" fill="rgb(0,0,0)" fill-opacity="0.0" stroke-width="1.0e-2" stroke-linecap="butt" stroke-linejoin="miter" font-size="1.0em" stroke-miterlimit="10.0"><g><g><g><g><path d="M 440.0000000000001,480.0 l -4.440892098500626e-15,-40.0 h -40.0 l -4.440892098500626e-15,40.0 h 40.000000000000014 Z" /><g fill="rgb(210,248,112)" fill-opacity="1.0" font-size="30.0em" font-family="Monospace"><text transform="matrix(1.0,0.0,0.0,1.0,420.0000000000001,460.0)" dominant-baseline="middle" text-anchor="middle" stroke="none">J</text></g></g><path d="M 400.0000000000001,480.0 l -4.440892098500626e-15,-40.0 h -40.0 l -4.440892098500626e-15,40.0 h 40.000000000000014 Z" /><g fill="rgb(210,248,112)" fill-opacity="1.0" font-size="30.0em" font-family="Monospace"><text transform="matrix(1.0,0.0,0.0,1.0,380.0000000000001,460.0)" dominant-baseline="middle" text-anchor="middle" stroke="none">I</text></g></g><g><g><g><path d="M 360.0000000000001,480.0 l -4.440892098500626e-15,-40.0 h -40.0 l -4.440892098500626e-15,40.0 h 40.000000000000014 Z" /><g fill="rgb(210,248,112)" fill-opacity="1.0" font-size="30.0em" font-family="Monospace"><text transform="matrix(1.0,0.0,0.0,1.0,340.0000000000001,460.0)" dominant-baseline="middle" text-anchor="middle" stroke="none">H</text></g></g><path d="M 320.0000000000001,480.0 l -4.440892098500626e-15,-40.0 h -40.0 l -4.440892098500626e-15,40.0 h 40.000000000000014 Z" /><g fill="rgb(210,248,112)" fill-opacity="1.0" font-size="30.0em" font-family="Monospace"><text transform="matrix(1.0,0.0,0.0,1.0,300.0000000000001,460.0)" dominant-baseline="middle" text-anchor="middle" stroke="none">G</text></g></g><g><path d="M 280.00000000000006,480.0 l -4.440892098500626e-15,-40.0 h -40.0 l -4.440892098500626e-15,40.0 h 40.000000000000014 Z" /><g fill="rgb(210,248,112)" fill-opacity="1.0" font-size="30.0em" font-family="Monospace"><text transform="matrix(1.0,0.0,0.0,1.0,260.00000000000006,460.0)" dominant-baseline="middle" text-anchor="middle" stroke="none">F</text></g></g><path d="M 240.00000000000006,480.0 l -4.440892098500626e-15,-40.0 h -40.0 l -4.440892098500626e-15,40.0 h 40.000000000000014 Z" /><g fill="rgb(210,248,112)" fill-opacity="1.0" font-size="30.0em" font-family="Monospace"><text transform="matrix(1.0,0.0,0.0,1.0,220.00000000000006,460.0)" dominant-baseline="middle" text-anchor="middle" stroke="none">E</text></g></g><g><g><path d="M 200.00000000000006,480.0 l -4.440892098500626e-15,-40.0 h -40.0 l -4.440892098500626e-15,40.0 h 40.000000000000014 Z" /><g fill="rgb(210,248,112)" fill-opacity="1.0" font-size="30.0em" font-family="Monospace"><text transform="matrix(1.0,0.0,0.0,1.0,180.00000000000006,460.0)" dominant-baseline="middle" text-anchor="middle" stroke="none">D</text></g></g><path d="M 160.00000000000003,480.0 l -4.440892098500626e-15,-40.0 h -40.0 l -4.440892098500626e-15,40.0 h 40.000000000000014 Z" /><g fill="rgb(210,248,112)" fill-opacity="1.0" font-size="30.0em" font-family="Monospace"><text transform="matrix(1.0,0.0,0.0,1.0,140.00000000000003,460.0)" dominant-baseline="middle" text-anchor="middle" stroke="none">C</text></g></g><g><path d="M 120.00000000000001,480.0 l -4.440892098500626e-15,-40.0 h -40.0 l -4.440892098500626e-15,40.0 h 40.000000000000014 Z" /><g fill="rgb(210,248,112)" fill-opacity="1.0" font-size="30.0em" font-family="Monospace"><text transform="matrix(1.0,0.0,0.0,1.0,100.00000000000001,460.0)" dominant-baseline="middle" text-anchor="middle" stroke="none">B</text></g></g><path d="M 80.0,480.0 l -4.440892098500626e-15,-40.0 h -40.0 l -4.440892098500626e-15,40.0 h 40.000000000000014 Z" /><g fill="rgb(210,248,112)" fill-opacity="1.0" font-size="30.0em" font-family="Monospace"><text transform="matrix(1.0,0.0,0.0,1.0,60.0,460.0)" dominant-baseline="middle" text-anchor="middle" stroke="none">A</text></g></g><g><g><g><g><path d="M 480.0000000000001,440.0 l -4.440892098500626e-15,-40.0 h -40.0 l -4.440892098500626e-15,40.0 h 40.000000000000014 Z" /><g fill="rgb(210,248,112)" fill-opacity="1.0" font-size="30.0em" font-family="Monospace"><text transform="matrix(1.0,0.0,0.0,1.0,460.0000000000001,420.0)" dominant-baseline="middle" text-anchor="middle" stroke="none">10</text></g></g><path d="M 480.0000000000001,400.0 l -4.440892098500626e-15,-40.0 h -40.0 l -4.440892098500626e-15,40.0 h 40.000000000000014 Z" /><g fill="rgb(210,248,112)" fill-opacity="1.0" font-size="30.0em" font-family="Monospace"><text transform="matrix(1.0,0.0,0.0,1.0,460.0000000000001,380.0)" dominant-baseline="middle" text-anchor="middle" stroke="none">9</text></g></g><g><g><g><path d="M 480.0000000000001,360.0 l -4.440892098500626e-15,-40.0 h -40.0 l -4.440892098500626e-15,40.0 h 40.000000000000014 Z" /><g fill="rgb(210,248,112)" fill-opacity="1.0" font-size="30.0em" font-family="Monospace"><text transform="matrix(1.0,0.0,0.0,1.0,460.0000000000001,340.0)" dominant-baseline="middle" text-anchor="middle" stroke="none">8</text></g></g><path d="M 480.0000000000001,320.0 l -4.440892098500626e-15,-40.0 h -40.0 l -4.440892098500626e-15,40.0 h 40.000000000000014 Z" /><g fill="rgb(210,248,112)" fill-opacity="1.0" font-size="30.0em" font-family="Monospace"><text transform="matrix(1.0,0.0,0.0,1.0,460.0000000000001,300.0)" dominant-baseline="middle" text-anchor="middle" stroke="none">7</text></g></g><g><path d="M 480.0000000000001,280.0 l -4.440892098500626e-15,-40.0 h -40.0 l -4.440892098500626e-15,40.0 h 40.000000000000014 Z" /><g fill="rgb(210,248,112)" fill-opacity="1.0" font-size="30.0em" font-family="Monospace"><text transform="matrix(1.0,0.0,0.0,1.0,460.0000000000001,260.0)" dominant-baseline="middle" text-anchor="middle" stroke="none">6</text></g></g><path d="M 480.0000000000001,240.0 l -4.440892098500626e-15,-40.0 h -40.0 l -4.440892098500626e-15,40.0 h 40.000000000000014 Z" /><g fill="rgb(210,248,112)" fill-opacity="1.0" font-size="30.0em" font-family="Monospace"><text transform="matrix(1.0,0.0,0.0,1.0,460.0000000000001,220.0)" dominant-baseline="middle" text-anchor="middle" stroke="none">5</text></g></g><g><g><path d="M 480.0000000000001,200.0 l -4.440892098500626e-15,-40.0 h -40.0 l -4.440892098500626e-15,40.0 h 40.000000000000014 Z" /><g fill="rgb(210,248,112)" fill-opacity="1.0" font-size="30.0em" font-family="Monospace"><text transform="matrix(1.0,0.0,0.0,1.0,460.0000000000001,180.0)" dominant-baseline="middle" text-anchor="middle" stroke="none">4</text></g></g><path d="M 480.0000000000001,160.0 l -4.440892098500626e-15,-40.0 h -40.0 l -4.440892098500626e-15,40.0 h 40.000000000000014 Z" /><g fill="rgb(210,248,112)" fill-opacity="1.0" font-size="30.0em" font-family="Monospace"><text transform="matrix(1.0,0.0,0.0,1.0,460.0000000000001,140.0)" dominant-baseline="middle" text-anchor="middle" stroke="none">3</text></g></g><g><path d="M 480.0000000000001,120.0 l -4.440892098500626e-15,-40.0 h -40.0 l -4.440892098500626e-15,40.0 h 40.000000000000014 Z" /><g fill="rgb(210,248,112)" fill-opacity="1.0" font-size="30.0em" font-family="Monospace"><text transform="matrix(1.0,0.0,0.0,1.0,460.0000000000001,100.0)" dominant-baseline="middle" text-anchor="middle" stroke="none">2</text></g></g><path d="M 480.0000000000001,80.0 l -4.440892098500626e-15,-40.0 h -40.0 l -4.440892098500626e-15,40.0 h 40.000000000000014 Z" /><g fill="rgb(210,248,112)" fill-opacity="1.0" font-size="30.0em" font-family="Monospace"><text transform="matrix(1.0,0.0,0.0,1.0,460.0000000000001,60.0)" dominant-baseline="middle" text-anchor="middle" stroke="none">1</text></g></g><g><g><g><g><g><path d="M 440.0000000000001,440.0 l -4.440892098500626e-15,-40.0 h -40.0 l -4.440892098500626e-15,40.0 h 40.000000000000014 Z" /></g><path d="M 400.0000000000001,440.0 l -4.440892098500626e-15,-40.0 h -40.0 l -4.440892098500626e-15,40.0 h 40.000000000000014 Z" /></g><g><g><g><path d="M 360.0000000000001,440.0 l -4.440892098500626e-15,-40.0 h -40.0 l -4.440892098500626e-15,40.0 h 40.000000000000014 Z" /></g><path d="M 320.0000000000001,440.0 l -4.440892098500626e-15,-40.0 h -40.0 l -4.440892098500626e-15,40.0 h 40.000000000000014 Z" /></g><g><path d="M 280.00000000000006,440.0 l -4.440892098500626e-15,-40.0 h -40.0 l -4.440892098500626e-15,40.0 h 40.000000000000014 Z" /></g><path d="M 240.00000000000006,440.0 l -4.440892098500626e-15,-40.0 h -40.0 l -4.440892098500626e-15,40.0 h 40.000000000000014 Z" /></g><g><g><path d="M 200.00000000000006,440.0 l -4.440892098500626e-15,-40.0 h -40.0 l -4.440892098500626e-15,40.0 h 40.000000000000014 Z" /></g><path d="M 160.00000000000006,440.0 l -4.440892098500626e-15,-40.0 h -40.0 l -4.440892098500626e-15,40.0 h 40.000000000000014 Z" /></g><g><path d="M 120.00000000000003,440.0 l -4.440892098500626e-15,-40.0 h -40.0 l -4.440892098500626e-15,40.0 h 40.000000000000014 Z" /></g><path d="M 80.00000000000001,440.0 l -4.440892098500626e-15,-40.0 h -40.0 l -4.440892098500626e-15,40.0 h 40.000000000000014 Z" /></g><g><g><path d="M 440.0000000000001,400.0 l -4.440892098500626e-15,-40.0 h -40.0 l -4.440892098500626e-15,40.0 h 40.000000000000014 Z" /></g><path d="M 400.0000000000001,400.0 l -4.440892098500626e-15,-40.0 h -40.0 l -4.440892098500626e-15,40.0 h 40.000000000000014 Z" /></g><g><g><g><path d="M 360.0000000000001,400.0 l -4.440892098500626e-15,-40.0 h -40.0 l -4.440892098500626e-15,40.0 h 40.000000000000014 Z" /></g><path d="M 320.0000000000001,400.0 l -4.440892098500626e-15,-40.0 h -40.0 l -4.440892098500626e-15,40.0 h 40.000000000000014 Z" /></g><g><path d="M 280.00000000000006,400.0 l -4.440892098500626e-15,-40.0 h -40.0 l -4.440892098500626e-15,40.0 h 40.000000000000014 Z" /></g><path d="M 240.00000000000006,400.0 l -4.440892098500626e-15,-40.0 h -40.0 l -4.440892098500626e-15,40.0 h 40.000000000000014 Z" /></g><g><g><path d="M 200.00000000000006,400.0 l -4.440892098500626e-15,-40.0 h -40.0 l -4.440892098500626e-15,40.0 h 40.000000000000014 Z" /></g><path d="M 160.00000000000006,400.0 l -4.440892098500626e-15,-40.0 h -40.0 l -4.440892098500626e-15,40.0 h 40.000000000000014 Z" /></g><g><path d="M 120.00000000000003,400.0 l -4.440892098500626e-15,-40.0 h -40.0 l -4.440892098500626e-15,40.0 h 40.000000000000014 Z" /></g><path d="M 80.00000000000001,400.0 l -4.440892098500626e-15,-40.0 h -40.0 l -4.440892098500626e-15,40.0 h 40.000000000000014 Z" /></g><g><g><g><g><g><path d="M 440.0000000000001,360.0 l -4.440892098500626e-15,-40.0 h -40.0 l -4.440892098500626e-15,40.0 h 40.000000000000014 Z" /></g><path d="M 400.0000000000001,360.0 l -4.440892098500626e-15,-40.0 h -40.0 l -4.440892098500626e-15,40.0 h 40.000000000000014 Z" /></g><g><g><g><path d="M 360.0000000000001,360.0 l -4.440892098500626e-15,-40.0 h -40.0 l -4.440892098500626e-15,40.0 h 40.000000000000014 Z" /></g><path d="M 320.0000000000001,360.0 l -4.440892098500626e-15,-40.0 h -40.0 l -4.440892098500626e-15,40.0 h 40.000000000000014 Z" /></g><g><path d="M 280.00000000000006,360.0 l -4.440892098500626e-15,-40.0 h -40.0 l -4.440892098500626e-15,40.0 h 40.000000000000014 Z" /></g><path d="M 240.00000000000006,360.0 l -4.440892098500626e-15,-40.0 h -40.0 l -4.440892098500626e-15,40.0 h 40.000000000000014 Z" /></g><g><g><path d="M 200.00000000000006,360.0 l -4.440892098500626e-15,-40.0 h -40.0 l -4.440892098500626e-15,40.0 h 40.000000000000014 Z" /></g><path d="M 160.00000000000006,360.0 l -4.440892098500626e-15,-40.0 h -40.0 l -4.440892098500626e-15,40.0 h 40.000000000000014 Z" /></g><g><path d="M 120.00000000000003,360.0 l -4.440892098500626e-15,-40.0 h -40.0 l -4.440892098500626e-15,40.0 h 40.000000000000014 Z" /></g><path d="M 80.00000000000001,360.0 l -4.440892098500626e-15,-40.0 h -40.0 l -4.440892098500626e-15,40.0 h 40.000000000000014 Z" /></g><g><g><path d="M 440.0000000000001,320.0 l -4.440892098500626e-15,-40.0 h -40.0 l -4.440892098500626e-15,40.0 h 40.000000000000014 Z" /></g><path d="M 400.0000000000001,320.0 l -4.440892098500626e-15,-40.0 h -40.0 l -4.440892098500626e-15,40.0 h 40.000000000000014 Z" /></g><g><g><g><path d="M 360.0000000000001,320.0 l -4.440892098500626e-15,-40.0 h -40.0 l -4.440892098500626e-15,40.0 h 40.000000000000014 Z" /></g><path d="M 320.0000000000001,320.0 l -4.440892098500626e-15,-40.0 h -40.0 l -4.440892098500626e-15,40.0 h 40.000000000000014 Z" /></g><g><path d="M 280.00000000000006,320.0 l -4.440892098500626e-15,-40.0 h -40.0 l -4.440892098500626e-15,40.0 h 40.000000000000014 Z" /></g><path d="M 240.00000000000006,320.0 l -4.440892098500626e-15,-40.0 h -40.0 l -4.440892098500626e-15,40.0 h 40.000000000000014 Z" /></g><g><g><path d="M 200.00000000000006,320.0 l -4.440892098500626e-15,-40.0 h -40.0 l -4.440892098500626e-15,40.0 h 40.000000000000014 Z" /></g><path d="M 160.00000000000006,320.0 l -4.440892098500626e-15,-40.0 h -40.0 l -4.440892098500626e-15,40.0 h 40.000000000000014 Z" /></g><g><path d="M 120.00000000000003,320.0 l -4.440892098500626e-15,-40.0 h -40.0 l -4.440892098500626e-15,40.0 h 40.000000000000014 Z" /></g><path d="M 80.00000000000001,320.0 l -4.440892098500626e-15,-40.0 h -40.0 l -4.440892098500626e-15,40.0 h 40.000000000000014 Z" /></g><g><g><g><path d="M 440.0000000000001,280.0 l -4.440892098500626e-15,-40.0 h -40.0 l -4.440892098500626e-15,40.0 h 40.000000000000014 Z" /></g><path d="M 400.0000000000001,280.0 l -4.440892098500626e-15,-40.0 h -40.0 l -4.440892098500626e-15,40.0 h 40.000000000000014 Z" /></g><g><g><g><path d="M 360.0000000000001,280.0 l -4.440892098500626e-15,-40.0 h -40.0 l -4.440892098500626e-15,40.0 h 40.000000000000014 Z" /></g><path d="M 320.0000000000001,280.0 l -4.440892098500626e-15,-40.0 h -40.0 l -4.440892098500626e-15,40.0 h 40.000000000000014 Z" /></g><g><path d="M 280.00000000000006,280.0 l -4.440892098500626e-15,-40.0 h -40.0 l -4.440892098500626e-15,40.0 h 40.000000000000014 Z" /></g><path d="M 240.00000000000006,280.0 l -4.440892098500626e-15,-40.0 h -40.0 l -4.440892098500626e-15,40.0 h 40.000000000000014 Z" /></g><g><g><path d="M 200.00000000000006,280.0 l -4.440892098500626e-15,-40.0 h -40.0 l -4.440892098500626e-15,40.0 h 40.000000000000014 Z" /></g><path d="M 160.00000000000006,280.0 l -4.440892098500626e-15,-40.0 h -40.0 l -4.440892098500626e-15,40.0 h 40.000000000000014 Z" /></g><g><path d="M 120.00000000000003,280.0 l -4.440892098500626e-15,-40.0 h -40.0 l -4.440892098500626e-15,40.0 h 40.000000000000014 Z" /></g><path d="M 80.00000000000001,280.0 l -4.440892098500626e-15,-40.0 h -40.0 l -4.440892098500626e-15,40.0 h 40.000000000000014 Z" /></g><g><g><path d="M 440.0000000000001,240.0 l -4.440892098500626e-15,-40.0 h -40.0 l -4.440892098500626e-15,40.0 h 40.000000000000014 Z" /></g><path d="M 400.0000000000001,240.0 l -4.440892098500626e-15,-40.0 h -40.0 l -4.440892098500626e-15,40.0 h 40.000000000000014 Z" /></g><g><g><g><path d="M 360.0000000000001,240.0 l -4.440892098500626e-15,-40.0 h -40.0 l -4.440892098500626e-15,40.0 h 40.000000000000014 Z" /></g><path d="M 320.0000000000001,240.0 l -4.440892098500626e-15,-40.0 h -40.0 l -4.440892098500626e-15,40.0 h 40.000000000000014 Z" /></g><g><path d="M 280.00000000000006,240.0 l -4.440892098500626e-15,-40.0 h -40.0 l -4.440892098500626e-15,40.0 h 40.000000000000014 Z" /></g><path d="M 240.00000000000006,240.0 l -4.440892098500626e-15,-40.0 h -40.0 l -4.440892098500626e-15,40.0 h 40.000000000000014 Z" /></g><g><g><path d="M 200.00000000000006,240.0 l -4.440892098500626e-15,-40.0 h -40.0 l -4.440892098500626e-15,40.0 h 40.000000000000014 Z" /></g><path d="M 160.00000000000006,240.0 l -4.440892098500626e-15,-40.0 h -40.0 l -4.440892098500626e-15,40.0 h 40.000000000000014 Z" /></g><g><path d="M 120.00000000000003,240.0 l -4.440892098500626e-15,-40.0 h -40.0 l -4.440892098500626e-15,40.0 h 40.000000000000014 Z" /></g><path d="M 80.00000000000001,240.0 l -4.440892098500626e-15,-40.0 h -40.0 l -4.440892098500626e-15,40.0 h 40.000000000000014 Z" /></g><g><g><g><g><path d="M 440.0000000000001,200.0 l -4.440892098500626e-15,-40.0 h -40.0 l -4.440892098500626e-15,40.0 h 40.000000000000014 Z" /></g><path d="M 400.0000000000001,200.0 l -4.440892098500626e-15,-40.0 h -40.0 l -4.440892098500626e-15,40.0 h 40.000000000000014 Z" /></g><g><g><g><path d="M 360.0000000000001,200.0 l -4.440892098500626e-15,-40.0 h -40.0 l -4.440892098500626e-15,40.0 h 40.000000000000014 Z" /></g><path d="M 320.0000000000001,200.0 l -4.440892098500626e-15,-40.0 h -40.0 l -4.440892098500626e-15,40.0 h 40.000000000000014 Z" /></g><g><path d="M 280.00000000000006,200.0 l -4.440892098500626e-15,-40.0 h -40.0 l -4.440892098500626e-15,40.0 h 40.000000000000014 Z" /></g><path d="M 240.00000000000006,200.0 l -4.440892098500626e-15,-40.0 h -40.0 l -4.440892098500626e-15,40.0 h 40.000000000000014 Z" /></g><g><g><path d="M 200.00000000000006,200.0 l -4.440892098500626e-15,-40.0 h -40.0 l -4.440892098500626e-15,40.0 h 40.000000000000014 Z" /></g><path d="M 160.00000000000006,200.0 l -4.440892098500626e-15,-40.0 h -40.0 l -4.440892098500626e-15,40.0 h 40.000000000000014 Z" /></g><g><path d="M 120.00000000000003,200.0 l -4.440892098500626e-15,-40.0 h -40.0 l -4.440892098500626e-15,40.0 h 40.000000000000014 Z" /></g><path d="M 80.00000000000001,200.0 l -4.440892098500626e-15,-40.0 h -40.0 l -4.440892098500626e-15,40.0 h 40.000000000000014 Z" /></g><g><g><path d="M 440.0000000000001,160.0 l -4.440892098500626e-15,-40.0 h -40.0 l -4.440892098500626e-15,40.0 h 40.000000000000014 Z" /></g><path d="M 400.0000000000001,160.0 l -4.440892098500626e-15,-40.0 h -40.0 l -4.440892098500626e-15,40.0 h 40.000000000000014 Z" /></g><g><g><g><path d="M 360.0000000000001,160.0 l -4.440892098500626e-15,-40.0 h -40.0 l -4.440892098500626e-15,40.0 h 40.000000000000014 Z" /></g><path d="M 320.0000000000001,160.0 l -4.440892098500626e-15,-40.0 h -40.0 l -4.440892098500626e-15,40.0 h 40.000000000000014 Z" /></g><g><path d="M 280.00000000000006,160.0 l -4.440892098500626e-15,-40.0 h -40.0 l -4.440892098500626e-15,40.0 h 40.000000000000014 Z" /></g><path d="M 240.00000000000006,160.0 l -4.440892098500626e-15,-40.0 h -40.0 l -4.440892098500626e-15,40.0 h 40.000000000000014 Z" /></g><g><g><path d="M 200.00000000000006,160.0 l -4.440892098500626e-15,-40.0 h -40.0 l -4.440892098500626e-15,40.0 h 40.000000000000014 Z" /></g><path d="M 160.00000000000006,160.0 l -4.440892098500626e-15,-40.0 h -40.0 l -4.440892098500626e-15,40.0 h 40.000000000000014 Z" /></g><g><path d="M 120.00000000000003,160.0 l -4.440892098500626e-15,-40.0 h -40.0 l -4.440892098500626e-15,40.0 h 40.000000000000014 Z" /></g><path d="M 80.00000000000001,160.0 l -4.440892098500626e-15,-40.0 h -40.0 l -4.440892098500626e-15,40.0 h 40.000000000000014 Z" /></g><g><g><g><path d="M 440.0000000000001,120.0 l -4.440892098500626e-15,-40.0 h -40.0 l -4.440892098500626e-15,40.0 h 40.000000000000014 Z" /></g><path d="M 400.0000000000001,120.0 l -4.440892098500626e-15,-40.0 h -40.0 l -4.440892098500626e-15,40.0 h 40.000000000000014 Z" /></g><g><g><g><path d="M 360.0000000000001,120.0 l -4.440892098500626e-15,-40.0 h -40.0 l -4.440892098500626e-15,40.0 h 40.000000000000014 Z" /></g><path d="M 320.0000000000001,120.0 l -4.440892098500626e-15,-40.0 h -40.0 l -4.440892098500626e-15,40.0 h 40.000000000000014 Z" /></g><g><path d="M 280.00000000000006,120.0 l -4.440892098500626e-15,-40.0 h -40.0 l -4.440892098500626e-15,40.0 h 40.000000000000014 Z" /></g><path d="M 240.00000000000006,120.0 l -4.440892098500626e-15,-40.0 h -40.0 l -4.440892098500626e-15,40.0 h 40.000000000000014 Z" /></g><g><g><path d="M 200.00000000000006,120.0 l -4.440892098500626e-15,-40.0 h -40.0 l -4.440892098500626e-15,40.0 h 40.000000000000014 Z" /></g><path d="M 160.00000000000006,120.0 l -4.440892098500626e-15,-40.0 h -40.0 l -4.440892098500626e-15,40.0 h 40.000000000000014 Z" /></g><g><path d="M 120.00000000000003,120.0 l -4.440892098500626e-15,-40.0 h -40.0 l -4.440892098500626e-15,40.0 h 40.000000000000014 Z" /></g><path d="M 80.00000000000001,120.0 l -4.440892098500626e-15,-40.0 h -40.0 l -4.440892098500626e-15,40.0 h 40.000000000000014 Z" /></g><g><g><path d="M 440.0000000000001,80.0 l -4.440892098500626e-15,-40.0 h -40.0 l -4.440892098500626e-15,40.0 h 40.000000000000014 Z" /></g><path d="M 400.0000000000001,80.0 l -4.440892098500626e-15,-40.0 h -40.0 l -4.440892098500626e-15,40.0 h 40.000000000000014 Z" /></g><g><g><g><path d="M 360.0000000000001,80.0 l -4.440892098500626e-15,-40.0 h -40.0 l -4.440892098500626e-15,40.0 h 40.000000000000014 Z" /></g><path d="M 320.0000000000001,80.0 l -4.440892098500626e-15,-40.0 h -40.0 l -4.440892098500626e-15,40.0 h 40.000000000000014 Z" /></g><g><path d="M 280.00000000000006,80.0 l -4.440892098500626e-15,-40.0 h -40.0 l -4.440892098500626e-15,40.0 h 40.000000000000014 Z" /></g><path d="M 240.00000000000006,80.0 l -4.440892098500626e-15,-40.0 h -40.0 l -4.440892098500626e-15,40.0 h 40.000000000000014 Z" /></g><g><g><path d="M 200.00000000000006,80.0 l -4.440892098500626e-15,-40.0 h -40.0 l -4.440892098500626e-15,40.0 h 40.000000000000014 Z" /></g><path d="M 160.00000000000006,80.0 l -4.440892098500626e-15,-40.0 h -40.0 l -4.440892098500626e-15,40.0 h 40.000000000000014 Z" /></g><g><path d="M 120.00000000000003,80.0 l -4.440892098500626e-15,-40.0 h -40.0 l -4.440892098500626e-15,40.0 h 40.000000000000014 Z" /></g><path d="M 80.00000000000001,80.0 l -4.440892098500626e-15,-40.0 h -40.0 l -4.440892098500626e-15,40.0 h 40.000000000000014 Z" /></g><g><g><path d="M 40.0,440.0 l -4.440892098500626e-15,-40.0 h -40.0 l -4.440892098500626e-15,40.0 h 40.000000000000014 Z" /><g fill="rgb(210,248,112)" fill-opacity="1.0" font-size="30.0em" font-family="Monospace"><text transform="matrix(1.0,0.0,0.0,1.0,20.0,420.0)" dominant-baseline="middle" text-anchor="middle" stroke="none">10</text></g></g><path d="M 40.0,400.0 l -4.440892098500626e-15,-40.0 h -40.0 l -4.440892098500626e-15,40.0 h 40.000000000000014 Z" /><g fill="rgb(210,248,112)" fill-opacity="1.0" font-size="30.0em" font-family="Monospace"><text transform="matrix(1.0,0.0,0.0,1.0,20.0,380.0)" dominant-baseline="middle" text-anchor="middle" stroke="none">9</text></g></g><g><g><g><path d="M 40.0,360.0 l -4.440892098500626e-15,-40.0 h -40.0 l -4.440892098500626e-15,40.0 h 40.000000000000014 Z" /><g fill="rgb(210,248,112)" fill-opacity="1.0" font-size="30.0em" font-family="Monospace"><text transform="matrix(1.0,0.0,0.0,1.0,20.0,340.0)" dominant-baseline="middle" text-anchor="middle" stroke="none">8</text></g></g><path d="M 40.0,320.0 l -4.440892098500626e-15,-40.0 h -40.0 l -4.440892098500626e-15,40.0 h 40.000000000000014 Z" /><g fill="rgb(210,248,112)" fill-opacity="1.0" font-size="30.0em" font-family="Monospace"><text transform="matrix(1.0,0.0,0.0,1.0,20.0,300.0)" dominant-baseline="middle" text-anchor="middle" stroke="none">7</text></g></g><g><path d="M 40.0,280.0 l -4.440892098500626e-15,-40.0 h -40.0 l -4.440892098500626e-15,40.0 h 40.000000000000014 Z" /><g fill="rgb(210,248,112)" fill-opacity="1.0" font-size="30.0em" font-family="Monospace"><text transform="matrix(1.0,0.0,0.0,1.0,20.0,260.0)" dominant-baseline="middle" text-anchor="middle" stroke="none">6</text></g></g><path d="M 40.0,240.0 l -4.440892098500626e-15,-40.0 h -40.0 l -4.440892098500626e-15,40.0 h 40.000000000000014 Z" /><g fill="rgb(210,248,112)" fill-opacity="1.0" font-size="30.0em" font-family="Monospace"><text transform="matrix(1.0,0.0,0.0,1.0,20.0,220.0)" dominant-baseline="middle" text-anchor="middle" stroke="none">5</text></g></g><g><g><path d="M 40.0,200.0 l -4.440892098500626e-15,-40.0 h -40.0 l -4.440892098500626e-15,40.0 h 40.000000000000014 Z" /><g fill="rgb(210,248,112)" fill-opacity="1.0" font-size="30.0em" font-family="Monospace"><text transform="matrix(1.0,0.0,0.0,1.0,20.0,180.0)" dominant-baseline="middle" text-anchor="middle" stroke="none">4</text></g></g><path d="M 40.0,160.0 l -4.440892098500626e-15,-40.0 h -40.0 l -4.440892098500626e-15,40.0 h 40.000000000000014 Z" /><g fill="rgb(210,248,112)" fill-opacity="1.0" font-size="30.0em" font-family="Monospace"><text transform="matrix(1.0,0.0,0.0,1.0,20.0,140.0)" dominant-baseline="middle" text-anchor="middle" stroke="none">3</text></g></g><g><path d="M 40.0,120.0 l -4.440892098500626e-15,-40.0 h -40.0 l -4.440892098500626e-15,40.0 h 40.000000000000014 Z" /><g fill="rgb(210,248,112)" fill-opacity="1.0" font-size="30.0em" font-family="Monospace"><text transform="matrix(1.0,0.0,0.0,1.0,20.0,100.0)" dominant-baseline="middle" text-anchor="middle" stroke="none">2</text></g></g><path d="M 40.0,80.0 l -4.440892098500626e-15,-40.0 h -40.0 l -4.440892098500626e-15,40.0 h 40.000000000000014 Z" /><g fill="rgb(210,248,112)" fill-opacity="1.0" font-size="30.0em" font-family="Monospace"><text transform="matrix(1.0,0.0,0.0,1.0,20.0,60.0)" dominant-baseline="middle" text-anchor="middle" stroke="none">1</text></g></g><g><g><g><path d="M 440.0000000000001,40.0 l -4.440892098500626e-15,-40.0 h -40.0 l -4.440892098500626e-15,40.0 h 40.000000000000014 Z" /><g fill="rgb(210,248,112)" fill-opacity="1.0" font-size="30.0em" font-family="Monospace"><text transform="matrix(1.0,0.0,0.0,1.0,420.0000000000001,20.0)" dominant-baseline="middle" text-anchor="middle" stroke="none">J</text></g></g><path d="M 400.0000000000001,40.0 l -4.440892098500626e-15,-40.0 h -40.0 l -4.440892098500626e-15,40.0 h 40.000000000000014 Z" /><g fill="rgb(210,248,112)" fill-opacity="1.0" font-size="30.0em" font-family="Monospace"><text transform="matrix(1.0,0.0,0.0,1.0,380.0000000000001,20.0)" dominant-baseline="middle" text-anchor="middle" stroke="none">I</text></g></g><g><g><g><path d="M 360.0000000000001,40.0 l -4.440892098500626e-15,-40.0 h -40.0 l -4.440892098500626e-15,40.0 h 40.000000000000014 Z" /><g fill="rgb(210,248,112)" fill-opacity="1.0" font-size="30.0em" font-family="Monospace"><text transform="matrix(1.0,0.0,0.0,1.0,340.0000000000001,20.0)" dominant-baseline="middle" text-anchor="middle" stroke="none">H</text></g></g><path d="M 320.0000000000001,40.0 l -4.440892098500626e-15,-40.0 h -40.0 l -4.440892098500626e-15,40.0 h 40.000000000000014 Z" /><g fill="rgb(210,248,112)" fill-opacity="1.0" font-size="30.0em" font-family="Monospace"><text transform="matrix(1.0,0.0,0.0,1.0,300.0000000000001,20.0)" dominant-baseline="middle" text-anchor="middle" stroke="none">G</text></g></g><g><path d="M 280.00000000000006,40.0 l -4.440892098500626e-15,-40.0 h -40.0 l -4.440892098500626e-15,40.0 h 40.000000000000014 Z" /><g fill="rgb(210,248,112)" fill-opacity="1.0" font-size="30.0em" font-family="Monospace"><text transform="matrix(1.0,0.0,0.0,1.0,260.00000000000006,20.0)" dominant-baseline="middle" text-anchor="middle" stroke="none">F</text></g></g><path d="M 240.00000000000006,40.0 l -4.440892098500626e-15,-40.0 h -40.0 l -4.440892098500626e-15,40.0 h 40.000000000000014 Z" /><g fill="rgb(210,248,112)" fill-opacity="1.0" font-size="30.0em" font-family="Monospace"><text transform="matrix(1.0,0.0,0.0,1.0,220.00000000000006,20.0)" dominant-baseline="middle" text-anchor="middle" stroke="none">E</text></g></g><g><g><path d="M 200.00000000000006,40.0 l -4.440892098500626e-15,-40.0 h -40.0 l -4.440892098500626e-15,40.0 h 40.000000000000014 Z" /><g fill="rgb(210,248,112)" fill-opacity="1.0" font-size="30.0em" font-family="Monospace"><text transform="matrix(1.0,0.0,0.0,1.0,180.00000000000006,20.0)" dominant-baseline="middle" text-anchor="middle" stroke="none">D</text></g></g><path d="M 160.00000000000003,40.0 l -4.440892098500626e-15,-40.0 h -40.0 l -4.440892098500626e-15,40.0 h 40.000000000000014 Z" /><g fill="rgb(210,248,112)" fill-opacity="1.0" font-size="30.0em" font-family="Monospace"><text transform="matrix(1.0,0.0,0.0,1.0,140.00000000000003,20.0)" dominant-baseline="middle" text-anchor="middle" stroke="none">C</text></g></g><g><path d="M 120.00000000000001,40.0 l -4.440892098500626e-15,-40.0 h -40.0 l -4.440892098500626e-15,40.0 h 40.000000000000014 Z" /><g fill="rgb(210,248,112)" fill-opacity="1.0" font-size="30.0em" font-family="Monospace"><text transform="matrix(1.0,0.0,0.0,1.0,100.00000000000001,20.0)" dominant-baseline="middle" text-anchor="middle" stroke="none">B</text></g></g><path d="M 80.0,40.0 l -4.440892098500626e-15,-40.0 h -40.0 l -4.440892098500626e-15,40.0 h 40.000000000000014 Z" /><g fill="rgb(210,248,112)" fill-opacity="1.0" font-size="30.0em" font-family="Monospace"><text transform="matrix(1.0,0.0,0.0,1.0,60.0,20.0)" dominant-baseline="middle" text-anchor="middle" stroke="none">A</text></g></g></g><g stroke="rgb(210,248,112)" stroke-opacity="1.0" fill-opacity="0.0" stroke-width="1.0"><path d="M 0.0,440.0 h 479.0 " /><path d="M 0.0,40.0 h 479.0 " /><path d="M 440.0,0.0 v 479.0 " /><path d="M 40.0,0.0 v 479.0 " /></g><g stroke="rgb(210,248,112)" stroke-opacity="1.0" fill-opacity="0.0" stroke-width="1.0" stroke-dasharray="3.0,3.0" stroke-dashoffset="0.0"><path d="M 0.0,400.0 h 479.0 " /><path d="M 0.0,360.0 h 479.0 " /><path d="M 0.0,320.0 h 479.0 " /><path d="M 0.0,280.0 h 479.0 " /><path d="M 0.0,240.0 h 479.0 " /><path d="M 0.0,200.0 h 479.0 " /><path d="M 0.0,160.0 h 479.0 " /><path d="M 0.0,120.0 h 479.0 " /><path d="M 0.0,80.0 h 479.0 " /><path d="M 400.0,0.0 v 479.0 " /><path d="M 360.0,0.0 v 479.0 " /><path d="M 320.0,0.0 v 479.0 " /><path d="M 280.0,0.0 v 479.0 " /><path d="M 240.0,0.0 v 479.0 " /><path d="M 200.0,0.0 v 479.0 " /><path d="M 160.0,0.0 v 479.0 " /><path d="M 120.0,0.0 v 479.0 " /><path d="M 80.0,0.0 v 479.0 " /></g><g stroke="rgb(210,248,112)" stroke-opacity="1.0" stroke-width="1.0"><path d="M 480.0000000000001,480.0 l -5.3290705182007514e-14,-480.0 h -480.0 l -5.3290705182007514e-14,480.0 h 480.0000000000001 Z" /></g></g></g></svg>