<?xml version="1.0" encoding="UTF-8"?>
<!DOCTYPE svg PUBLIC "-//W3C//DTD SVG 1.1//EN"
    "http://www.w3.org/Graphics/SVG/1.1/DTD/svg11.dtd">
<svg xmlns="http://www.w3.org/2000/svg" xmlns:xlink="http://www.w3.org/1999/xlink" version="1.1" width="40.0" height="40.0" font-size="1" viewBox="0 0 40 40"><g><g transform="matrix(1.0,0.0,0.0,1.0,20.0,20.0)"><g stroke="rgb(0,0,0)" stroke-opacity="1.0" fill="rgb(128,128,128)" fill-opacity="1.0" stroke-width="1.0e-2" font-size="1.0em"><path d="M 20.0,20.0 v -40.0 h -40.0 v 40.0 h 40.0 Z" /></g></g><g transform="matrix(1.0,0.0,0.0,1.0,20.0,20.0)"><g stroke="rgb(254,63,68)" stroke-opacity="1.0" fill="rgb(0,0,0)" fill-opacity="0.0" stroke-width="3.0" font-size="1.0em"><path d="M 17.0,0.0 c -1.887379141862766e-15,-9.388840747123485 -7.6111592528765115,-16.999999999999996 -16.999999999999996 -17.0c -9.388840747123485,1.3124974401650733e-15 -16.999999999999996,7.611159252876511 -17.0 16.999999999999993c 7.376157384673805e-16,9.388840747123485 7.61115925287651,16.999999999999996 16.999999999999993 17.0c 9.388840747123485,-1.6273403676968776e-16 16.999999999999996,-7.611159252876509 17.0 -16.99999999999999Z" /></g></g><g transform="matrix(1.0,0.0,0.0,1.0,20.0,20.0)"><g stroke="rgb(254,63,68)" stroke-opacity="1.0" fill="rgb(0,0,0)" fill-opacity="0.0" stroke-width="3.0" font-size="1.0em"><path d="M -12.020815280171309,-12.020815280171309 l 24.041630560342618,24.041630560342618 " /></g></g><g transform="matrix(1.0,0.0,0.0,1.0,20.0,20.0)"><g stroke="rgb(254,63,68)" stroke-opacity="1.0" fill="rgb(0,0,0)" fill-opacity="0.0" stroke-width="3.0" font-size="1.0em"><path d="M -12.020815280171309,12.020815280171309 l 24.041630560342618,-24.041630560342618 " /></g></g></g></svg>