<?xml version="1.0" encoding="UTF-8"?>
<!DOCTYPE svg PUBLIC "-//W3C//DTD SVG 1.1//EN"
    "http://www.w3.org/Graphics/SVG/1.1/DTD/svg11.dtd">
<svg xmlns="http://www.w3.org/2000/svg" xmlns:xlink="http://www.w3.org/1999/xlink" version="1.1" width="85.00000000000003" height="45.0" font-size="1" viewBox="0 0 85 45"><g><g fill="rgb(0,0,0)" fill-opacity="0.0"><g stroke="rgb(0,0,0)" stroke-opacity="1.0" stroke-width="1.0e-2" stroke-linecap="butt" stroke-linejoin="miter" font-size="1.0em" stroke-miterlimit="10.0"><g transform="matrix(1.0,0.0,0.0,1.0,42.50000000000002,22.5)"><g fill="rgb(54,187,206)" fill-opacity="1.0"><g fill="rgb(54,187,206)" fill-opacity="1.0"><g fill="rgb(54,187,206)" fill-opacity="1.0"><path d="M 42.50000000000001,22.5 l -9.43689570931383e-15,-45.0 h -85.0 l -9.43689570931383e-15,45.0 Z" /></g></g></g><g><g stroke="rgb(128,128,128)" stroke-opacity="1.0" stroke-width="5.0"><path d="M 40.00000000000001,10.0 v -20.0 c 0.0,-5.522847498307934 -4.477152501692064,-10.0 -9.999999999999998 -10.0h -60.0 c -5.522847498307934,-3.38176875549089e-16 -10.0,4.477152501692064 -10.0 9.999999999999996v 20.0 c -6.76353751098178e-16,5.522847498307934 4.477152501692063,10.0 9.999999999999996 10.000000000000002h 60.0 c 5.522847498307934,1.0145306266472668e-15 10.0,-4.477152501692062 10.0 -9.999999999999996Z" /></g><g stroke="rgb(210,248,112)" stroke-opacity="1.0" stroke-width="1.0" stroke-dasharray="3.0,3.0" stroke-dashoffset="0.0"><path d="M 7.105427357601002e-15,-20.0 v 40.0 " /></g><g stroke="rgb(210,248,112)" stroke-opacity="1.0" stroke-width="1.0" stroke-dasharray="3.0,3.0" stroke-dashoffset="0.0"><path d="M 40.000000000000014,20.0 l -8.881784197001252e-15,-40.0 h -80.0 l -8.881784197001252e-15,40.0 Z" /></g></g></g></g></g></g></svg>